<?xml version="1.0" encoding="UTF-8" standalone="no"?>
<!-- Created with Inkscape (http://www.inkscape.org/) -->

<svg
   width="30pc"
   height="30pc"
   viewBox="0 0 127 127"
   version="1.1"
   id="svg5"
   inkscape:version="1.2.2 (732a01da63, 2022-12-09)"
   sodipodi:docname="logo.svg"
   xmlns:inkscape="http://www.inkscape.org/namespaces/inkscape"
   xmlns:sodipodi="http://sodipodi.sourceforge.net/DTD/sodipodi-0.dtd"
   xmlns="http://www.w3.org/2000/svg"
   xmlns:svg="http://www.w3.org/2000/svg">
  <sodipodi:namedview
     id="namedview7"
     pagecolor="#ffffff"
     bordercolor="#666666"
     borderopacity="1.0"
     inkscape:pageshadow="2"
     inkscape:pageopacity="0"
     inkscape:pagecheckerboard="0"
     inkscape:document-units="mm"
     showgrid="false"
     inkscape:zoom="1.4142136"
     inkscape:cx="178.89802"
     inkscape:cy="233.69879"
     inkscape:window-width="1920"
     inkscape:window-height="1001"
     inkscape:window-x="-9"
     inkscape:window-y="-9"
     inkscape:window-maximized="1"
     inkscape:current-layer="layer1"
     inkscape:showpageshadow="2"
     inkscape:deskcolor="#d1d1d1"
     showguides="true">
    <sodipodi:guide
       position="34.660417,103.98125"
       orientation="1,0"
       id="guide4028"
       inkscape:locked="false" />
  </sodipodi:namedview>
  <defs
     id="defs2" />
  <g
     inkscape:label="Слой 1"
     inkscape:groupmode="layer"
     id="layer1">
    <path
       style="fill:#382fe2;fill-opacity:1;stroke-width:1"
       id="path966"
       sodipodi:type="arc"
       sodipodi:cx="-25.253256"
       sodipodi:cy="87.927895"
       sodipodi:rx="7.9982486"
       sodipodi:ry="7.9982266"
       sodipodi:start="0"
       sodipodi:end="6.2829235"
       sodipodi:arc-type="slice"
       d="m -17.255007,87.927895 a 7.9982486,7.9982266 0 0 1 -7.997725,7.998226 7.9982486,7.9982266 0 0 1 -7.998772,-7.997179 7.9982486,7.9982266 0 0 1 7.996678,-7.999274 7.9982486,7.9982266 0 0 1 7.999818,7.996133 l -7.998248,0.0021 z"
       transform="rotate(-21.141799)" />
    <path
       style="fill:#382fe2;fill-opacity:1;stroke-width:1"
       id="path966-1"
       sodipodi:type="arc"
       sodipodi:cx="75.645958"
       sodipodi:cy="134.16747"
       sodipodi:rx="7.9982486"
       sodipodi:ry="7.9982266"
       sodipodi:start="0"
       sodipodi:end="6.2829235"
       sodipodi:arc-type="slice"
       d="m 83.644207,134.16747 a 7.9982486,7.9982266 0 0 1 -7.997726,7.99822 7.9982486,7.9982266 0 0 1 -7.998772,-7.99718 7.9982486,7.9982266 0 0 1 7.996678,-7.99927 7.9982486,7.9982266 0 0 1 7.999819,7.99613 l -7.998248,0.002 z"
       transform="rotate(-21.141799)" />
    <path
       style="fill:#382fe2;fill-opacity:1;stroke-width:1"
       id="path966-1-9"
       sodipodi:type="arc"
       sodipodi:cx="46.271015"
       sodipodi:cy="130.72414"
       sodipodi:rx="7.9982486"
       sodipodi:ry="7.9982266"
       sodipodi:start="0"
       sodipodi:end="6.2829235"
       sodipodi:arc-type="slice"
       d="m 54.269264,130.72414 a 7.9982486,7.9982266 0 0 1 -7.997725,7.99822 7.9982486,7.9982266 0 0 1 -7.998772,-7.99718 7.9982486,7.9982266 0 0 1 7.996678,-7.99927 7.9982486,7.9982266 0 0 1 7.999818,7.99613 l -7.998248,0.002 z"
       transform="rotate(-21.141799)" />
    <path
       style="fill:#382fe2;fill-opacity:1;stroke-width:1"
       id="path966-2"
       sodipodi:type="arc"
       sodipodi:cx="-1.5943873"
       sodipodi:cy="74.455345"
       sodipodi:rx="7.9982486"
       sodipodi:ry="7.9982266"
       sodipodi:start="0"
       sodipodi:end="6.2829235"
       sodipodi:arc-type="slice"
       d="m 6.4038613,74.455345 a 7.9982486,7.9982266 0 0 1 -7.9977251,7.998227 7.9982486,7.9982266 0 0 1 -7.998772,-7.99718 7.9982486,7.9982266 0 0 1 7.996678,-7.999273 7.9982486,7.9982266 0 0 1 7.9998188,7.996132 l -7.9982483,0.0021 z"
       transform="rotate(-21.141799)" />
    <path
       style="fill:#382fe2;fill-opacity:1;stroke-width:1"
       id="path966-2-9"
       sodipodi:type="arc"
       sodipodi:cx="15.041423"
       sodipodi:cy="93.740273"
       sodipodi:rx="7.9982486"
       sodipodi:ry="7.9982266"
       sodipodi:start="0"
       sodipodi:end="6.2829235"
       sodipodi:arc-type="slice"
       d="m 23.039671,93.740273 a 7.9982486,7.9982266 0 0 1 -7.997725,7.998227 7.9982486,7.9982266 0 0 1 -7.9987717,-7.99718 7.9982486,7.9982266 0 0 1 7.9966777,-7.999274 7.9982486,7.9982266 0 0 1 7.999819,7.996133 l -7.998248,0.0021 z"
       transform="rotate(-21.141799)" />
    <path
       style="fill:#382fe2;fill-opacity:1;stroke-width:1"
       id="path966-4"
       sodipodi:type="arc"
       sodipodi:cx="84.193687"
       sodipodi:cy="103.72363"
       sodipodi:rx="7.9982486"
       sodipodi:ry="7.9982266"
       sodipodi:start="0"
       sodipodi:end="6.2829235"
       sodipodi:arc-type="slice"
       d="m 92.191936,103.72363 a 7.9982486,7.9982266 0 0 1 -7.997725,7.99823 7.9982486,7.9982266 0 0 1 -7.998772,-7.99718 7.9982486,7.9982266 0 0 1 7.996678,-7.999274 7.9982486,7.9982266 0 0 1 7.999819,7.996134 l -7.998249,0.002 z"
       transform="rotate(-21.141799)" />
    <path
       style="fill:#382fe2;fill-opacity:1;stroke-width:1"
       id="path966-5"
       sodipodi:type="arc"
       sodipodi:cx="38.135715"
       sodipodi:cy="106.71111"
       sodipodi:rx="7.9982486"
       sodipodi:ry="7.9982266"
       sodipodi:start="0"
       sodipodi:end="6.2829235"
       sodipodi:arc-type="slice"
       d="m 46.133964,106.71111 a 7.9982486,7.9982266 0 0 1 -7.997725,7.99823 7.9982486,7.9982266 0 0 1 -7.998772,-7.99718 7.9982486,7.9982266 0 0 1 7.996678,-7.999274 7.9982486,7.9982266 0 0 1 7.999819,7.996134 l -7.998249,0.002 z"
       transform="rotate(-21.141799)" />
    <rect
       style="fill:#e6e6e6;fill-opacity:1;stroke:#6e6e6e;stroke-width:0.94362;stroke-dasharray:none;stroke-opacity:1"
       stroke="#a3a3a3"
       stroke-linejoin="mitter"
       id="rect2022"
       width="22.845123"
       height="33.289173"
       x="31.98023"
       y="4.2968664" />
    <rect
       style="fill:#aaaaaa;fill-opacity:1;stroke:#6e6e6e;stroke-width:0;stroke-dasharray:none;stroke-opacity:1"
       id="rect2490-4-8"
       width="15.002327"
       height="1.5325046"
       x="34.643612"
       y="12.614855" />
    <rect
       style="fill:#aaaaaa;fill-opacity:1;stroke:#6e6e6e;stroke-width:0;stroke-dasharray:none;stroke-opacity:1"
       id="rect2490-4-8-72"
       width="15.002327"
       height="1.5325046"
       x="34.647655"
       y="33.267506" />
    <rect
       style="fill:#aaaaaa;fill-opacity:1;stroke:#6e6e6e;stroke-width:0;stroke-dasharray:none;stroke-opacity:1"
       id="rect2490-4-8-8"
       width="16.031485"
       height="1.5325046"
       x="34.63805"
       y="30.2605" />
    <rect
       style="fill:#aaaaaa;fill-opacity:1;stroke:#6e6e6e;stroke-width:0;stroke-dasharray:none;stroke-opacity:1"
       id="rect2490-4-8-79"
       width="17.139809"
       height="1.5325044"
       x="34.666046"
       y="26.962502" />
    <rect
       style="fill:#aaaaaa;fill-opacity:1;stroke:#6e6e6e;stroke-width:0;stroke-dasharray:none;stroke-opacity:1"
       id="rect2490-4-8-0"
       width="15.002327"
       height="1.5325046"
       x="34.684429"
       y="21.374743" />
    <rect
       style="fill:#aaaaaa;fill-opacity:1;stroke:#6e6e6e;stroke-width:0;stroke-dasharray:none;stroke-opacity:1"
       id="rect2490-4-8-6"
       width="16.902311"
       height="1.5325044"
       x="34.689232"
       y="18.464743" />
    <rect
       style="fill:#aaaaaa;fill-opacity:1;stroke:#6e6e6e;stroke-width:0;stroke-dasharray:none;stroke-opacity:1"
       id="rect2490-4-8-2"
       width="18.723131"
       height="1.5325044"
       x="34.684429"
       y="15.651739" />
    <rect
       style="fill:#e6e6e6;fill-opacity:1;stroke:#6e6e6e;stroke-width:0.817427;stroke-dasharray:none;stroke-opacity:1"
       stroke="#a3a3a3"
       stroke-linejoin="mitter"
       id="rect2022-9-7"
       width="28.346458"
       height="20.132639"
       x="83.488136"
       y="2.4973698" />
    <rect
       style="fill:#aaaaaa;fill-opacity:1;stroke:#6e6e6e;stroke-width:0;stroke-dasharray:none;stroke-opacity:1"
       id="rect2490-4-8-3-5"
       width="18.087923"
       height="1.5685132"
       x="87.047249"
       y="12.873981" />
    <rect
       style="fill:#e6e6e6;fill-opacity:1;stroke:#6e6e6e;stroke-width:0.876633;stroke-dasharray:none;stroke-opacity:1"
       stroke="#a3a3a3"
       stroke-linejoin="mitter"
       id="rect2022-9-4"
       width="14.910653"
       height="44.019112"
       x="59.192036"
       y="14.201157" />
    <rect
       style="fill:#aaaaaa;fill-opacity:1;stroke:#6e6e6e;stroke-width:0;stroke-dasharray:none;stroke-opacity:1"
       id="rect2490-4-8-2-9-9-7"
       width="22.573999"
       height="1.568513"
       x="86.567291"
       y="7.7916088" />
    <rect
       style="fill:#aaaaaa;fill-opacity:1;stroke:#6e6e6e;stroke-width:0;stroke-dasharray:none;stroke-opacity:1"
       id="rect2490-4-8-6-1-9"
       width="20.378683"
       height="1.568513"
       x="87.102249"
       y="18.86132" />
    <rect
       style="fill:#aaaaaa;fill-opacity:1;stroke:#6e6e6e;stroke-width:0;stroke-dasharray:none;stroke-opacity:1"
       id="rect2490-4-8-2-9-9"
       width="22.573999"
       height="1.568513"
       x="87.096458"
       y="15.982221" />
    <rect
       style="fill:#aaaaaa;fill-opacity:1;stroke:#6e6e6e;stroke-width:0;stroke-dasharray:none;stroke-opacity:1"
       id="rect2490-4-8-3-9"
       width="9.2817535"
       height="1.4954811"
       x="61.401375"
       y="17.085392" />
    <rect
       style="fill:#aaaaaa;fill-opacity:1;stroke:#6e6e6e;stroke-width:0;stroke-dasharray:none;stroke-opacity:1"
       id="rect2490-4-8-6-1-8"
       width="10.457251"
       height="1.495481"
       x="61.429596"
       y="22.793953" />
    <rect
       style="fill:#aaaaaa;fill-opacity:1;stroke:#6e6e6e;stroke-width:0;stroke-dasharray:none;stroke-opacity:1"
       id="rect2490-4-8-2-9-7"
       width="11.583768"
       height="1.495481"
       x="61.426628"
       y="20.048908" />
    <rect
       style="fill:#aaaaaa;fill-opacity:1;stroke:#6e6e6e;stroke-width:0;stroke-dasharray:none;stroke-opacity:1"
       id="rect2490-4-8-0-5-4"
       width="9.2817535"
       height="1.4954811"
       x="61.426628"
       y="25.633652" />
    <rect
       style="fill:#aaaaaa;fill-opacity:1;stroke:#6e6e6e;stroke-width:0;stroke-dasharray:none;stroke-opacity:1"
       id="rect2490-4-8-79-2-6"
       width="10.604188"
       height="1.495481"
       x="61.415257"
       y="28.473351" />
    <rect
       style="fill:#aaaaaa;fill-opacity:1;stroke:#6e6e6e;stroke-width:0;stroke-dasharray:none;stroke-opacity:1"
       id="rect2490-4-8-8-2-0"
       width="9.9184809"
       height="1.4954811"
       x="61.397934"
       y="33.726795" />
    <rect
       style="fill:#aaaaaa;fill-opacity:1;stroke:#6e6e6e;stroke-width:0;stroke-dasharray:none;stroke-opacity:1"
       id="rect2490-4-8-72-5-6"
       width="9.2817535"
       height="1.4954811"
       x="61.403877"
       y="36.187874" />
    <rect
       style="fill:#aaaaaa;fill-opacity:1;stroke:#6e6e6e;stroke-width:0;stroke-dasharray:none;stroke-opacity:1"
       id="rect2490-4-8-3-9-1"
       width="9.2817535"
       height="1.4954811"
       x="61.533669"
       y="38.648933" />
    <rect
       style="fill:#aaaaaa;fill-opacity:1;stroke:#6e6e6e;stroke-width:0;stroke-dasharray:none;stroke-opacity:1"
       id="rect2490-4-8-6-1-8-4"
       width="10.457251"
       height="1.495481"
       x="61.56189"
       y="44.357494" />
    <rect
       style="fill:#aaaaaa;fill-opacity:1;stroke:#6e6e6e;stroke-width:0;stroke-dasharray:none;stroke-opacity:1"
       id="rect2490-4-8-2-9-7-6"
       width="11.583768"
       height="1.495481"
       x="61.558922"
       y="41.61245" />
    <rect
       style="fill:#aaaaaa;fill-opacity:1;stroke:#6e6e6e;stroke-width:0;stroke-dasharray:none;stroke-opacity:1"
       id="rect2490-4-8-0-5-4-7"
       width="9.2817535"
       height="1.4954811"
       x="61.558922"
       y="47.197193" />
    <rect
       style="fill:#aaaaaa;fill-opacity:1;stroke:#6e6e6e;stroke-width:0;stroke-dasharray:none;stroke-opacity:1"
       id="rect2490-4-8-79-2-6-1"
       width="10.604188"
       height="1.495481"
       x="61.54755"
       y="50.036892" />
    <rect
       style="fill:#aaaaaa;fill-opacity:1;stroke:#6e6e6e;stroke-width:0;stroke-dasharray:none;stroke-opacity:1"
       id="rect2490-4-8-8-2-0-1"
       width="9.9184809"
       height="1.4954811"
       x="61.530228"
       y="54.761169" />
    <rect
       style="fill:#e6e6e6;fill-opacity:1;stroke:#6e6e6e;stroke-width:1.00454;stroke-dasharray:none;stroke-opacity:1"
       stroke="#a3a3a3"
       stroke-linejoin="mitter"
       id="rect2022-9-3"
       width="25.487179"
       height="33.815941"
       x="68.590195"
       y="7.8799353" />
    <rect
       style="fill:#aaaaaa;fill-opacity:1;stroke:#6e6e6e;stroke-width:0;stroke-dasharray:none;stroke-opacity:1"
       id="rect2490-1"
       width="14.873548"
       height="2.8606465"
       x="73.9468"
       y="10.516193" />
    <rect
       style="fill:#aaaaaa;fill-opacity:1;stroke:#6e6e6e;stroke-width:0;stroke-dasharray:none;stroke-opacity:1"
       id="rect2490"
       width="17.49279"
       height="2.8606465"
       x="34.798492"
       y="6.5481048" />
    <rect
       style="fill:#aaaaaa;fill-opacity:1;stroke:#6e6e6e;stroke-width:0;stroke-dasharray:none;stroke-opacity:1"
       id="rect2490-4-8-3"
       width="16.049097"
       height="1.4954811"
       x="71.915924"
       y="16.621695" />
    <rect
       style="fill:#aaaaaa;fill-opacity:1;stroke:#6e6e6e;stroke-width:0;stroke-dasharray:none;stroke-opacity:1"
       id="rect2490-4-8-72-5"
       width="16.049097"
       height="1.4954811"
       x="71.92025"
       y="35.724182" />
    <rect
       style="fill:#aaaaaa;fill-opacity:1;stroke:#6e6e6e;stroke-width:0;stroke-dasharray:none;stroke-opacity:1"
       id="rect2490-4-8-8-2"
       width="17.150063"
       height="1.4954811"
       x="71.909973"
       y="33.2631" />
    <rect
       style="fill:#aaaaaa;fill-opacity:1;stroke:#6e6e6e;stroke-width:0;stroke-dasharray:none;stroke-opacity:1"
       id="rect2490-4-8-79-2"
       width="18.33572"
       height="1.495481"
       x="71.939926"
       y="28.009655" />
    <rect
       style="fill:#aaaaaa;fill-opacity:1;stroke:#6e6e6e;stroke-width:0;stroke-dasharray:none;stroke-opacity:1"
       id="rect2490-4-8-0-5"
       width="16.049097"
       height="1.4954811"
       x="71.959587"
       y="25.169954" />
    <rect
       style="fill:#aaaaaa;fill-opacity:1;stroke:#6e6e6e;stroke-width:0;stroke-dasharray:none;stroke-opacity:1"
       id="rect2490-4-8-6-1"
       width="18.08165"
       height="1.495481"
       x="71.964722"
       y="22.330256" />
    <rect
       style="fill:#aaaaaa;fill-opacity:1;stroke:#6e6e6e;stroke-width:0;stroke-dasharray:none;stroke-opacity:1"
       id="rect2490-4-8-2-9"
       width="20.029514"
       height="1.495481"
       x="71.959587"
       y="19.585213" />
    <rect
       style="fill:#aaaaaa;fill-opacity:1;stroke:#6e6e6e;stroke-width:0;stroke-dasharray:none;stroke-opacity:1"
       id="rect2490-4-8-3-5-0"
       width="18.087923"
       height="1.5685132"
       x="86.518082"
       y="4.6833692" />
  </g>
</svg>
