<?xml version="1.0" standalone="no"?>
<!DOCTYPE svg PUBLIC "-//W3C//DTD SVG 20010904//EN"
 "http://www.w3.org/TR/2001/REC-SVG-20010904/DTD/svg10.dtd">
<svg version="1.0" xmlns="http://www.w3.org/2000/svg"
 width="998.000000pt" height="998.000000pt" viewBox="0 0 998.000000 998.000000"
 preserveAspectRatio="xMidYMid meet">
<metadata>
Created by potrace 1.14, written by Peter Selinger 2001-2017
</metadata>
<g transform="translate(0.000000,998.000000) scale(0.100000,-0.100000)"
fill="#000000" stroke="none">
<path d="M6282 9106 c-3 -5 -6 -95 -6 -200 l-1 -191 -555 -2 c-305 -1 -560 -2
-565 -2 -7 -1 -10 -76 -10 -218 1 -120 -1 -228 -5 -241 l-5 -23 -348 1 c-191
0 -347 -3 -347 -7 -1 -11 -1 -3287 -1 -3343 l1 -45 589 0 c325 1 593 4 597 7
3 4 7 283 8 619 l1 613 25 6 c14 4 33 3 43 -2 10 -5 17 -5 17 0 0 5 20 6 45 2
25 -4 47 -4 49 -1 2 3 57 4 121 1 64 -3 118 -3 120 0 2 3 56 3 120 0 64 -3
118 -3 121 -1 2 2 34 3 71 2 38 -1 74 -2 81 -2 23 1 62 1 75 0 6 0 30 0 52 0
22 1 48 1 58 1 9 0 40 0 67 0 28 0 57 0 65 0 8 0 26 0 40 0 14 0 31 -1 38 -1
6 0 30 0 52 0 22 1 49 1 60 1 11 0 51 0 88 1 38 0 71 -2 74 -5 3 -3 11 0 17 7
9 9 12 187 11 717 0 388 1 710 3 717 3 8 162 12 635 12 348 0 646 1 663 1 29
0 32 3 36 36 2 19 0 38 -4 40 -5 3 -5 10 -1 17 10 16 10 57 0 57 -4 0 -5 5 -1
11 10 16 11 169 1 169 -5 0 -5 5 -1 11 9 15 8 234 -1 248 -3 6 -3 11 2 11 4 0
8 27 8 60 0 33 -4 60 -8 60 -5 0 -5 5 -2 11 9 14 12 79 4 79 -3 0 -3 18 1 39
4 21 3 46 -2 55 -5 9 -5 16 -1 16 4 0 8 27 8 60 0 33 -4 60 -8 60 -5 0 -5 5
-2 11 9 14 12 79 4 79 -3 0 -3 18 1 40 4 22 3 37 -1 34 -5 -3 -5 5 0 18 5 15
5 31 0 41 -6 9 -6 17 -2 17 10 0 8 104 -3 121 -4 7 -3 10 2 7 5 -4 9 7 9 23 0
16 -3 29 -7 29 -4 0 -3 13 2 30 5 18 5 32 -1 35 -5 4 -5 14 1 26 8 15 7 21 -4
25 -25 10 -2188 10 -2194 0z"/>
<path d="M2414 8978 c-3 -4 -11 -5 -19 -1 -13 4 -15 -153 -13 -1288 l3 -1294
895 0 895 0 2 1288 c1 909 -2 1289 -10 1294 -12 7 -96 8 -103 0 -3 -3 -19 -1
-35 3 -16 5 -42 5 -58 0 -16 -4 -32 -6 -35 -3 -8 9 -66 12 -66 4 0 -7 -75 -5
-96 3 -7 3 -27 1 -43 -4 -17 -5 -33 -5 -35 -2 -4 8 -186 6 -193 -2 -3 -2 -18
0 -34 4 -16 5 -42 5 -59 0 -16 -5 -32 -5 -34 -1 -5 8 -105 6 -113 -2 -2 -3
-17 -2 -32 3 -16 4 -34 4 -41 0 -7 -4 -26 -4 -41 0 -16 5 -42 5 -59 0 -16 -5
-32 -5 -34 -2 -4 8 -186 6 -193 -2 -3 -2 -18 0 -34 4 -16 5 -42 5 -59 0 -16
-5 -32 -5 -34 -1 -5 8 -105 6 -113 -2 -2 -3 -18 -1 -34 3 -16 5 -42 5 -58 0
-16 -4 -32 -5 -35 -2 -9 9 -77 9 -82 0z"/>
<path d="M8941 4839 c-111 -28 -196 -75 -277 -153 -40 -38 -71 -73 -69 -77 3
-4 -2 -9 -10 -13 -8 -3 -15 -10 -15 -17 0 -6 -8 -23 -19 -37 -22 -32 -61 -148
-68 -200 -26 -205 44 -401 191 -534 60 -55 64 -58 75 -58 5 0 11 -3 13 -7 8
-19 149 -74 223 -88 78 -14 207 -3 275 23 14 5 27 9 30 9 16 -1 104 47 156 86
61 45 135 131 168 196 80 155 92 333 34 490 -47 124 -131 230 -236 298 -45 29
-127 70 -127 63 0 -1 -13 4 -30 10 -77 30 -216 34 -314 9z"/>
<path d="M2290 4583 c-8 -1 -49 -4 -90 -7 -96 -6 -114 -10 -175 -34 -75 -31
-105 -46 -105 -54 0 -5 -6 -8 -14 -8 -21 0 -176 -155 -176 -176 0 -3 -9 -18
-19 -33 -39 -54 -72 -178 -76 -281 -1 -45 15 -169 25 -190 1 -3 5 -12 7 -20
80 -242 327 -413 586 -404 86 3 128 10 182 30 62 24 145 67 145 76 0 4 6 8 13
8 6 0 37 26 67 58 65 68 80 87 100 127 8 17 19 37 26 45 10 13 20 44 25 75 0
6 5 17 9 26 19 35 28 170 16 237 -3 17 -8 45 -11 61 -15 87 -84 211 -160 286
-42 43 -117 95 -170 120 -62 28 -161 55 -170 47 -3 -4 -9 -2 -13 4 -4 5 -14 9
-22 7z"/>
<path d="M3877 3674 c-1 -1 -20 -4 -42 -7 -114 -16 -249 -87 -334 -177 -39
-42 -101 -130 -101 -145 0 -6 -6 -17 -12 -23 -7 -7 -13 -16 -14 -20 0 -4 -9
-34 -19 -67 -19 -62 -25 -205 -13 -277 20 -111 82 -228 165 -313 45 -46 159
-121 198 -131 6 -2 29 -10 52 -18 202 -74 476 -2 618 163 17 19 38 43 47 53
29 29 85 148 105 223 10 37 11 226 2 258 -6 18 -12 42 -15 55 -8 40 -53 129
-90 179 -43 56 -131 141 -156 149 -10 3 -18 10 -18 15 0 5 -3 8 -7 7 -5 -1
-22 5 -38 14 -63 34 -164 59 -244 62 -45 1 -82 2 -84 0z"/>
<path d="M5818 3385 c-2 -2 -18 -6 -36 -10 -42 -7 -128 -41 -172 -68 -40 -24
-112 -78 -121 -91 -4 -4 -22 -27 -40 -49 -64 -77 -104 -162 -125 -267 -12 -57
-8 -231 5 -255 3 -5 6 -12 7 -15 5 -28 20 -71 32 -95 9 -16 16 -32 17 -35 2
-17 78 -113 124 -157 58 -55 182 -124 261 -144 118 -30 299 -12 403 41 20 11
37 18 37 15 0 -3 8 2 18 9 9 8 40 33 68 55 104 80 189 219 212 341 9 51 9 212
1 248 -5 20 -12 45 -14 56 -7 32 -63 146 -85 174 -47 60 -108 118 -164 153
-54 36 -145 76 -184 82 -10 1 -21 5 -27 8 -11 7 -210 10 -217 4z"/>
<path d="M588 2979 c-7 -4 -15 -6 -18 -4 -13 8 -132 -34 -192 -69 -151 -86
-267 -244 -292 -401 -1 -5 -4 -14 -7 -20 -7 -13 -3 -168 5 -224 4 -25 14 -57
22 -73 8 -15 15 -31 15 -35 8 -58 112 -192 205 -264 23 -18 131 -72 136 -68 2
1 14 -4 28 -11 14 -8 34 -15 45 -16 11 -1 31 -5 45 -8 14 -3 50 -6 80 -7 232
-3 448 123 551 321 13 25 24 47 24 50 1 3 9 30 19 60 10 30 20 78 22 105 3 28
5 55 6 60 2 17 -15 137 -25 182 -14 58 -83 176 -136 230 -59 62 -107 103 -118
103 -3 0 -14 6 -22 14 -17 15 -137 64 -167 69 -11 1 -25 6 -31 10 -8 5 -13 3
-13 -3 0 -6 -5 -8 -12 -3 -17 10 -154 12 -170 2z"/>
<path d="M9214 2468 c-3 -5 -9 -6 -14 -3 -12 7 -141 -35 -162 -53 -10 -8 -18
-12 -18 -8 0 9 -106 -70 -138 -104 -99 -104 -149 -205 -171 -341 -23 -145 24
-334 111 -444 41 -51 115 -125 127 -125 6 0 11 -4 11 -10 0 -5 6 -10 14 -10 8
0 16 -4 18 -8 3 -9 114 -62 138 -67 8 -2 15 -4 15 -5 0 -5 70 -12 150 -15 86
-3 206 15 230 35 5 5 14 8 18 8 17 1 134 73 167 104 51 48 119 136 126 164 3
13 9 24 13 24 12 0 47 102 57 170 7 52 7 164 -1 198 -3 12 -7 30 -9 40 -30
127 -114 250 -243 353 -34 27 -144 76 -203 90 -63 15 -228 20 -236 7z"/>
<path d="M7030 1909 c-56 -14 -145 -43 -150 -49 -3 -3 -22 -14 -43 -25 -22
-11 -52 -32 -68 -47 -16 -16 -33 -28 -39 -28 -5 0 -10 -3 -10 -7 0 -5 -13 -21
-28 -38 -57 -62 -120 -182 -138 -262 -3 -16 -7 -71 -9 -123 -6 -175 52 -319
179 -446 78 -77 200 -143 301 -161 68 -13 255 -7 273 7 1 2 5 3 10 5 51 14 70
21 105 39 89 46 171 117 226 194 26 39 72 122 66 122 -3 0 1 13 10 30 8 16 15
32 15 35 0 3 0 6 1 8 20 65 20 206 0 288 -16 68 -56 167 -71 179 -4 3 -9 10
-11 16 -9 25 -97 119 -144 154 -57 42 -159 92 -192 94 -13 0 -23 5 -23 10 0 4
-7 6 -15 2 -8 -3 -15 -2 -15 2 0 11 -188 11 -230 1z"/>
</g>
</svg>
