<?xml version="1.0" standalone="no"?>
<!DOCTYPE svg PUBLIC "-//W3C//DTD SVG 20010904//EN"
 "http://www.w3.org/TR/2001/REC-SVG-20010904/DTD/svg10.dtd">
<svg version="1.0" xmlns="http://www.w3.org/2000/svg"
 width="700.000000pt" height="700.000000pt" viewBox="0 0 700.000000 700.000000"
 preserveAspectRatio="xMidYMid meet">
<metadata>
Created by potrace 1.14, written by Peter Selinger 2001-2017
</metadata>
<g transform="translate(0.000000,700.000000) scale(0.100000,-0.100000)"
fill="#000000" stroke="none">
<path d="M4578 6740 l-3 -145 -405 -2 c-223 0 -408 -1 -412 -2 -4 -1 -7 -45
-7 -98 1 -54 1 -133 0 -175 l-1 -77 -251 1 c-137 0 -253 -2 -256 -6 -7 -6 -7
-2452 0 -2463 4 -6 771 -9 855 -4 9 1 12 99 12 454 l0 452 550 0 c377 -1 550
2 551 10 0 5 1 243 1 527 l1 518 486 2 486 3 0 575 0 575 -802 0 -802 0 -3
-145z"/>
<path d="M1738 6778 c-3 -11 -2 -1805 1 -1859 1 -15 58 -16 654 -15 l652 1 2
943 3 942 -654 0 c-514 0 -655 -3 -658 -12z"/>
<path d="M6255 3760 c-122 -39 -234 -146 -276 -266 -102 -284 94 -577 394
-590 262 -10 474 208 454 470 -21 283 -301 472 -572 386z"/>
<path d="M1295 3569 c-162 -40 -306 -193 -330 -350 -34 -222 77 -409 298 -498
48 -19 169 -25 228 -11 211 49 356 239 344 453 -9 167 -99 301 -253 375 -63
30 -85 35 -160 38 -48 2 -105 -1 -127 -7z"/>
<path d="M2506 2900 c-213 -66 -342 -285 -301 -510 20 -113 127 -251 235 -302
81 -39 124 -48 219 -45 76 3 95 7 162 40 163 78 259 232 253 407 -3 88 -9 115
-46 187 -94 190 -319 285 -522 223z"/>
<path d="M3950 2691 c-82 -28 -116 -48 -174 -105 -57 -55 -101 -131 -121 -208
-16 -60 -12 -191 9 -245 68 -187 237 -305 427 -298 93 4 110 8 184 44 80 40
125 79 170 147 197 296 -11 686 -364 683 -45 0 -98 -7 -131 -18z"/>
<path d="M341 2404 c-108 -28 -202 -98 -264 -196 -48 -76 -62 -130 -62 -233 0
-73 5 -102 25 -153 97 -246 371 -352 609 -236 139 69 233 217 240 380 11 286
-267 509 -548 438z"/>
<path d="M6434 2030 c-85 -29 -137 -61 -191 -117 -197 -203 -158 -529 82 -680
89 -56 224 -80 326 -58 65 14 159 67 212 119 200 195 168 525 -66 679 -29 19
-77 42 -107 52 -73 24 -192 26 -256 5z"/>
<path d="M4846 1619 c-103 -35 -182 -95 -237 -180 -160 -250 -36 -579 249
-663 35 -10 84 -14 142 -13 79 3 96 7 163 40 281 139 341 499 120 711 -117
113 -291 154 -437 105z"/>
</g>
</svg>
